{"title":"Trois couleurs(BLEU,BLANC,ROUGE):by Kieslowski[x264][AC3].mkv","uid":5232091,"size":4392082486,"categoryP":"video","categoryS":"movies","magnet":"?xt=urn:btih:3f732b0d33cc7db933f4aea40f1fb4e879db2cdd&amp;dn=Trois+couleurs%28BLEU%2CBLANC%2CROUGE%29%3Aby+Kieslowski%5Bx264%5D%5BAC3%5D.mkv&amp;tr=udp%3A%2F%2Ftracker.openbittorrent.com%3A80&amp;tr=udp%3A%2F%2Fopen.demonii.com%3A1337&amp;tr=udp%3A%2F%2Ftracker.coppersurfer.tk%3A6969&amp;tr=udp%3A%2F%2Fexodus.desync.com%3A6969","seeders":7,"leechers":2,"uploader":"Zen_Bud","files":-1,"time":1261376789,"description":"Trois couleurs: by Krzysztof Kieslowski\n\n\nGeneral\nComplete name                    : BLEU.mkv\nFormat                           : Matroska\nFile size                        : 1.37 GiB\nDuration                         : 1h 33mn\nOverall bit rate                 : 2 090 Kbps\n\n\nVideo\nID                               : 1\nFormat                           : AVC\n\nCodec ID                         : V_MPEG4/ISO/AVC\nDuration                         : 1h 33mn\nBit rate                         : 1 601 Kbps\nNominal bit rate                 : 1 631 Kbps\nWidth                            : 718 pixels\nHeight                           : 562 pixels\nDisplay aspect ratio             : 16:9\nFrame rate                       : 25.000 fps\nResolution                       : 8 bits\nColorimetry                      : 4:2:0\nScan type                        : Progressive\nBits/(Pixel*Frame)               : 0.159\nStream size                      : 1.05 GiB (77%)\nWriting library                  : x264 core 79\n\n\nAudio\nID                               : 2\nFormat                           : AC-3\nFormat/Info                      : Audio Coding 3\nCodec ID                         : A_AC3\nDuration                         : 1h 33mn\nBit rate mode                    : Constant\nBit rate                         : 448 Kbps\nChannel(s)                       : 6 channels\nChannel positions                : Front: L C R, Surround: L R, LFE\nSampling rate                    : 48.0 KHz\nStream size                      : 301 MiB (21%)\nLanguage                         : French\n\nText #1\nLanguage                         : Finnish\n\nText #2\nLanguage                         : Norwegian\n\nText #3\nLanguage                         : Swedish &lt;a href=&quot;\nhttp://www.imdb.com/title/tt0108394/&quot; rel=&quot;nofollow&quot; target=&quot;_NEW&quot;&gt;\nhttp://www.imdb.com/title/tt0108394/&lt;/a&gt;\n\n\n******************************************************************\n\n\nGeneral\nComplete name                    : BLANC.mkv\nFormat                           : Matroska\nFile size                        : 1.34 GiB\nDuration                         : 1h 27mn\nOverall bit rate                 : 2 191 Kbps\n\n\nVideo\nID                               : 1\nFormat                           : AVC\n\nCodec ID                         : V_MPEG4/ISO/AVC\nDuration                         : 1h 27mn\nBit rate                         : 1 699 Kbps\nWidth                            : 718 pixels\nHeight                           : 562 pixels\nDisplay aspect ratio             : 16:9\nFrame rate                       : 25.000 fps\nResolution                       : 8 bits\nColorimetry                      : 4:2:0\nScan type                        : Progressive\nBits/(Pixel*Frame)               : 0.168\nStream size                      : 1.04 GiB (78%)\nWriting library                  : x264 core 79\n\n\nAudio\nID                               : 2\nFormat                           : AC-3\nFormat/Info                      : Audio Coding 3\nCodec ID                         : A_AC3\nDuration                         : 1h 27mn\nBit rate mode                    : Constant\nBit rate                         : 448 Kbps\nChannel(s)                       : 6 channels\nChannel positions                : Front: L C R, Surround: L R, LFE\nSampling rate                    : 48.0 KHz\nStream size                      : 282 MiB (20%)\nLanguage                         : Polish\n\nText #1\nLanguage                         : Finnish\n\nText #2\nLanguage                         : Norwegian\n\nText #3\nLanguage                         : Swedish &lt;a href=&quot;\nhttp://www.imdb.com/title/tt0108394/&quot; rel=&quot;nofollow&quot; target=&quot;_NEW&quot;&gt;\nhttp://www.imdb.com/title/tt0108394/&lt;/a&gt;\n\n******************************************************************\n\n\nGeneral\nComplete name                    : Rouge.mkv\nFormat                           : Matroska\nFile size                        : 1.37 GiB\nDuration                         : 1h 35mn\nOverall bit rate                 : 2 067 Kbps\n\n\nVideo\nID                               : 1\nFormat                           : AVC\n\nCodec ID                         : V_MPEG4/ISO/AVC\nDuration                         : 1h 35mn\nBit rate                         : 1 578 Kbps\nNominal bit rate                 : 1 606 Kbps\nWidth                            : 718 pixels\nHeight                           : 570 pixels\nDisplay aspect ratio             : 16:9\nFrame rate                       : 25.000 fps\nResolution                       : 8 bits\nColorimetry                      : 4:2:0\nScan type                        : Progressive\nBits/(Pixel*Frame)               : 0.154\nStream size                      : 1.05 GiB (76%)\nWriting library                  : x264 core 79\n\n\nAudio\nID                               : 2\nFormat                           : AC-3\nFormat/Info                      : Audio Coding 3\nCodec ID                         : A_AC3\nDuration                         : 1h 35mn\nBit rate mode                    : Constant\nBit rate                         : 448 Kbps\nChannel(s)                       : 6 channels\nChannel positions                : Front: L C R, Surround: L R, LFE\nSampling rate                    : 48.0 KHz\nStream size                      : 305 MiB (22%)\nLanguage                         : French\n\nText #1\nLanguage                         : Finnish\n\nText #2s\nLanguage                         : Norwegian\n\nText #3\nLanguage                         : Swedish\n &lt;a href=&quot;\nhttp://www.imdb.com/title/tt0111495/&quot; rel=&quot;nofollow&quot; target=&quot;_NEW&quot;&gt;\nhttp://www.imdb.com/title/tt0111495/&lt;/a&gt;\n\n\n******************************************************************\n\n\n\n\n\n\n","torrent":{"xt":"urn:btih:3f732b0d33cc7db933f4aea40f1fb4e879db2cdd","amp;dn":"Trois+couleurs%28BLEU%2CBLANC%2CROUGE%29%3Aby+Kieslowski%5Bx264%5D%5BAC3%5D.mkv","amp;tr":["udp%3A%2F%2Ftracker.openbittorrent.com%3A80","udp%3A%2F%2Fopen.demonii.com%3A1337","udp%3A%2F%2Ftracker.coppersurfer.tk%3A6969","udp%3A%2F%2Fexodus.desync.com%3A6969"],"infoHash":"3f732b0d33cc7db933f4aea40f1fb4e879db2cdd","infoHashBuffer":{"type":"Buffer","data":[63,115,43,13,51,204,125,185,51,244,174,164,15,31,180,232,121,219,44,221]},"announce":[],"urlList":[]}}